<?xml version="1.0" encoding="utf-8"?>
<!-- Generator: Adobe Illustrator 25.1.0, SVG Export Plug-In . SVG Version: 6.00 Build 0)  -->
<svg version="1.1" id="Layer_1" xmlns="http://www.w3.org/2000/svg" xmlns:xlink="http://www.w3.org/1999/xlink" x="0px" y="0px"
	 viewBox="0 0 360 360" style="enable-background:new 0 0 360 360;" xml:space="preserve">
<style type="text/css">
	.st0{fill:none;stroke:#0690C4;stroke-miterlimit:10;}
	.st1{fill:#0690C4;}
	.st2{fill:#A0DBE9;}
	.st3{fill:#93C7DF;}
	.st4{fill:#88B5D7;}
	.st5{fill:#7DA5CE;}
	.st6{fill:#7495C6;}
	.st7{fill:#6B86BD;}
	.st8{fill:#6278B6;}
	.st9{fill:#596BAF;}
	.st10{fill:#505EA9;}
	.st11{fill:#4851A3;}
</style>
<g>
	<path class="st0" d="M154.3,355.5c-4.2,0-7.8-2.5-9.2-6.4l-15.6-42.5L88.8,327c-1.4,0.7-2.9,1-4.4,1c-2.8,0-5.4-1.2-7.3-3.2
		c-1.8-2-2.8-4.8-2.5-7.5l4.5-45l-45.8,0.8c-3.5,0-6.8-1.9-8.6-5c-1.7-3.1-1.7-6.8,0.2-9.8l23.7-38.6L7.2,200.9
		c-3.3-1.5-5.4-4.6-5.7-8.2c-0.3-3.5,1.5-6.9,4.5-8.9l38.3-24.6l-29.1-34.8c-2.3-2.7-2.9-6.5-1.6-9.8c1.3-3.3,4.3-5.6,7.9-6.1
		l45.2-5.7L55.8,59.1c-0.7-2.9-0.1-6,1.8-8.3c1.9-2.4,4.7-3.8,7.7-3.8c1.1,0,2.1,0.2,3.1,0.5l43.2,14.3l9.3-44.2
		c1-4.6,4.9-7.7,9.6-7.7c2.6,0,5,1,6.8,2.8l32.7,31.5l27.8-35.8c1.9-2.4,4.7-3.8,7.8-3.8c4.2,0,7.8,2.5,9.2,6.4l15.6,42.5L271.2,33
		c1.4-0.7,2.9-1,4.4-1c2.8,0,5.4,1.2,7.3,3.2c1.8,2,2.8,4.8,2.5,7.5l-4.5,45l45.8-0.8c3.5,0,6.8,1.9,8.6,5c1.7,3.1,1.7,6.8-0.2,9.8
		l-23.7,38.6l41.4,18.9c3.3,1.5,5.4,4.6,5.7,8.1c0.3,3.5-1.4,6.9-4.5,8.9l-38.3,24.6l29.1,34.8c2.3,2.7,2.9,6.5,1.6,9.8
		c-1.3,3.3-4.3,5.6-7.9,6.1l-45.2,5.7l10.9,43.9c0.7,2.9,0.1,6-1.8,8.3c-1.9,2.4-4.7,3.8-7.7,3.8c-1.1,0-2.1-0.2-3.1-0.5l-43.2-14.3
		l-9.3,44.2c-1,4.6-4.9,7.7-9.6,7.7c-2.6,0-5-1-6.8-2.8l-32.7-31.5l-27.8,35.8C160.2,354.1,157.4,355.5,154.3,355.5z"/>
	<path class="st1" d="M337.8,245.8l-47,5.9c-2.4,0.3-4.1,2.7-3.5,5l11.4,45.6c0.8,3.1-2.2,5.9-5.3,4.9l-44.9-14.9
		c-2.3-0.8-4.8,0.6-5.3,3l-9.7,46c-0.7,3.2-4.6,4.3-6.9,2.1l-33.9-32.8c-1.8-1.7-4.6-1.5-6.1,0.4l-28.9,37.2c-2,2.6-6,1.9-7.1-1.1
		l-16.3-44.1c-0.8-2.3-3.5-3.3-5.7-2.2l-42.3,21.1c-2.9,1.4-6.3-0.8-6-4l4.7-46.7c0.2-2.4-1.7-4.5-4.2-4.5l-47.3,0.8
		c-3.2,0.1-5.3-3.5-3.6-6.2l24.6-40.1c1.3-2.1,0.4-4.8-1.8-5.8l-43-19.6c-2.9-1.3-3.2-5.4-0.5-7.1l39.7-25.5c2.1-1.3,2.5-4.1,0.9-6
		l-30.2-36.2c-2.1-2.5-0.6-6.2,2.7-6.7l47-5.9c2.4-0.3,4.1-2.7,3.5-5L61.3,57.7c-0.8-3.1,2.2-5.9,5.3-4.9l44.9,14.9
		c2.3,0.8,4.8-0.6,5.3-3l9.7-46c0.7-3.2,4.6-4.3,6.9-2.1l33.9,32.8c1.8,1.7,4.6,1.5,6.1-0.4l28.9-37.2c2-2.6,6-1.9,7.1,1.1
		l16.3,44.1c0.8,2.3,3.5,3.3,5.7,2.2l42.3-21.1c2.9-1.4,6.3,0.8,6,4l-4.7,46.7c-0.2,2.4,1.7,4.5,4.2,4.5l47.3-0.8
		c3.2-0.1,5.3,3.5,3.6,6.2l-24.6,40.1c-1.3,2.1-0.4,4.8,1.8,5.8l43,19.6c2.9,1.3,3.2,5.4,0.5,7.1l-39.7,25.5c-2.1,1.3-2.5,4.1-0.9,6
		l30.2,36.2C342.5,241.6,341,245.4,337.8,245.8z"/>
	<g>
		<path class="st2" d="M71.8,187.5c-3.5-9.5,0.9-18,7.9-20.5c2.8-1,5.4-0.9,6.4-1.3c0.9-0.3,0.8-1.5,1.7-1.9
			c0.8-0.3,1.5,0.1,2.7,1.5l2.8,3.3c1.3,1.5,2,2.2,2.2,2.9c0.3,0.9-0.1,1.6-0.8,1.8c-0.6,0.2-1.2,0-1.9-0.5
			c-4.5-2.9-7.7-4.2-10.5-3.2c-4.5,1.6-6.3,7.4-3.9,13.8c2.6,7.1,8.1,9.9,13.2,8c3.2-1.1,5.1-3.7,5.9-6.5c0.2-0.7,0.5-1.3,1.2-1.6
			c0.8-0.3,1.5,0.1,1.8,0.8c0.2,0.5,0.2,1.2,0.1,2c-0.4,3.1-3.2,8.2-9.6,10.6C83.6,199.5,75.1,196.5,71.8,187.5z"/>
		<path class="st2" d="M104.6,189.8c-0.6-1.6,2.1-1.6,1-4.5l-6.8-18.6c-0.9-2.5-3.2-0.4-3.8-2.2c-0.3-0.9,0.5-1.8,2.9-4.1
			c2.2-2.1,2.7-2.4,3.1-2.6c1-0.4,1.5,0.3,1.9,1.5l8.7,23.8c1.1,2.9,3.2,1.2,3.8,2.8c0.2,0.5,0,1.3-1,1.6c-0.9,0.3-2,0.6-4.1,1.3
			c-2,0.7-3,1.2-3.9,1.6C105.4,190.8,104.8,190.4,104.6,189.8z"/>
		<path class="st2" d="M109.7,160.2c-0.7-2,0.6-4.9,3.4-5.9c1.7-0.6,3.5-0.1,4.1,1.5c0.7,1.9-0.9,4.8-3.6,5.8
			C111.8,162.3,110.2,161.7,109.7,160.2z M117.7,185.1c-0.6-1.6,2.1-1.6,1-4.5l-3.1-8.4c-0.9-2.5-3.2-0.5-3.8-2.2
			c-0.3-0.9,0.5-1.8,2.9-4.1c2.2-2.2,2.6-2.4,3.1-2.6c1-0.4,1.5,0.3,1.9,1.5l5,13.6c1.1,2.9,3.1,1.2,3.7,2.8c0.2,0.5,0,1.3-0.9,1.6
			c-1,0.4-2.1,0.6-4.1,1.3c-2,0.7-3,1.2-4,1.6C118.5,186,117.9,185.6,117.7,185.1z"/>
		<path class="st2" d="M127.2,171.9c-2.5-6.8,1.2-13,7-15.1c4.7-1.7,9.4-0.1,10.2,1.9c0.3,1,0.2,2.5-1.2,4.8c-0.4,0.7-0.7,1-1.1,1.1
			c-0.7,0.3-1.4-0.1-1.8-0.8c-1.4-2.3-3.3-5-6-4c-2.4,0.9-3.2,3.8-1.8,7.5c2,5.4,6.6,7.4,10.3,6.1c2.3-0.8,3.6-2.5,4.3-4.1
			c0.3-0.5,0.5-0.8,0.8-0.9c0.5-0.2,1.1,0.2,1.2,0.7c0.1,0.4,0.1,0.8,0.1,1.3c-0.3,2.5-2.6,6.3-7.6,8.1
			C135.8,180.6,129.6,178.4,127.2,171.9z"/>
		<path class="st2" d="M177.6,163.4c0.2,0.6-0.2,1.2-0.9,1.5c-1,0.4-2.4,0.7-4.5,1.5c-2,0.7-3,1.2-4,1.6c-1,0.4-1.7,0.2-1.9-0.5
			c-0.5-1.4,1.4-1.5,0.8-3c-0.1-0.4-0.5-0.8-1.2-1.4l-5-4l-2.6,4.4l0.8,2.3c1.1,2.9,3.2,1.2,3.7,2.8c0.2,0.5,0,1.3-0.9,1.6
			c-0.9,0.3-2,0.6-4.1,1.3c-2,0.7-3,1.2-3.9,1.6c-1,0.3-1.6-0.1-1.8-0.6c-0.6-1.6,2.1-1.6,1-4.5l-6.8-18.6c-0.9-2.5-3.2-0.4-3.8-2.2
			c-0.3-0.9,0.5-1.8,2.9-4.1c2.2-2.1,2.7-2.4,3.2-2.6c0.9-0.3,1.4,0.3,1.8,1.3l6.7,18.1l4-7.3c0.4-0.8,0.6-1.2,0.5-1.7
			c-0.4-1-1.9,0.1-2.4-1.3c-0.3-0.7,0.1-1.3,1.1-1.6c0.8-0.3,2.4-0.7,3.4-1.1c1-0.4,3.3-1.3,4.1-1.6c0.7-0.3,1.4-0.1,1.7,0.6
			c0.6,1.6-2,2-3.3,4.4l-2.3,3.8l10,7.6C175.6,163.1,177.1,162.1,177.6,163.4z"/>
		<path class="st2" d="M212.8,150.7c0.2,0.6-0.2,1.2-1.1,1.6c-1,0.4-1.9,0.6-4,1.3c-2.2,0.8-2.9,1.2-4,1.6c-1,0.4-1.7,0.1-1.9-0.6
			c-0.5-1.5,2-1.8,1.3-3.7c-0.2-0.6-0.4-0.9-0.6-1.3l-3-5.6c-1.4-2.6-3.1-4.2-5.3-3.4c-1.8,0.6-3.3,2.7-1.8,6.7l2.1,5.8
			c1.1,2.9,3.2,1.2,3.8,2.8c0.2,0.5,0,1.3-1,1.6c-0.9,0.3-2,0.6-4.1,1.3c-2,0.7-3,1.2-3.9,1.6c-1,0.4-1.6-0.1-1.8-0.6
			c-0.6-1.6,2.1-1.6,1-4.5l-6.8-18.6c-0.9-2.5-3.2-0.4-3.8-2.2c-0.3-0.9,0.5-1.8,2.9-4.1c2.2-2.1,2.7-2.4,3.2-2.6
			c0.9-0.3,1.4,0.3,1.8,1.3l4.5,12.2c0.5-2.6,2.1-5.2,5.2-6.4c4.1-1.5,7.3,1.3,9.4,5.4l3.7,7C210.4,150.8,212.2,148.9,212.8,150.7z"
			/>
		<path class="st2" d="M233.4,138.9c0.1,0.3,0.1,0.7,0,1.2c-0.6,2.5-3.3,6.3-8.2,8.1c-6.2,2.2-12.3-0.2-14.7-6.7
			c-2.4-6.6,1.2-12.8,7-14.9c5.7-2.1,10.7,0.7,12.1,4.6c0.4,1.2,0.1,1.5-0.5,2l-10.7,8c2.2,2.1,5.1,3.1,8,2c2-0.7,3.4-2.1,4.4-3.8
			c0.5-0.7,0.7-1,1.1-1.2C232.6,138,233.2,138.4,233.4,138.9z M215.8,137.1c0.2,0.6,0.5,1.3,0.8,1.8l6.1-4.7
			c0.6-0.4,0.8-0.9,0.5-1.6c-0.7-1.8-3.1-3.5-5.4-2.6C215.4,130.8,214.5,133.6,215.8,137.1z"/>
		<path class="st2" d="M249.8,118.3c0.4,1.1,0.4,2.8,0.3,5.1c0,0.9-0.3,1.5-1,1.8c-0.6,0.2-1.2-0.1-1.8-0.7
			c-1.2-1.2-2.2-1.8-3.3-1.4c-1.6,0.6-3.2,3.6-1.5,8.4l1.3,3.7c1.1,2.9,3.6,0.9,4.2,2.6c0.2,0.5,0,1.3-1,1.6c-1,0.4-2.3,0.7-4.6,1.5
			c-2,0.7-3,1.2-4,1.6c-1,0.3-1.6-0.1-1.8-0.6c-0.6-1.6,2.1-1.6,1-4.5l-3.1-8.4c-0.9-2.5-3.2-0.5-3.8-2.2c-0.3-0.9,0.5-1.8,2.9-4.1
			c2.2-2.2,2.6-2.4,3.1-2.6c1-0.4,1.5,0.3,1.9,1.5l1.2,3.3c0.1-3.5,2.1-6.8,5-7.8C247.4,116.2,249.3,116.9,249.8,118.3z"/>
		<path class="st2" d="M276.6,123.2c0.1,0.3,0.1,0.7,0,1.2c-0.6,2.5-3.3,6.3-8.2,8.1c-6.2,2.2-12.3-0.2-14.7-6.7
			c-2.4-6.6,1.2-12.8,7-14.9c5.7-2.1,10.7,0.7,12.1,4.6c0.4,1.2,0.1,1.5-0.5,2l-10.7,8c2.2,2.1,5.1,3.1,8,2c2-0.7,3.4-2.1,4.4-3.8
			c0.5-0.7,0.7-1,1.1-1.2C275.8,122.3,276.4,122.8,276.6,123.2z M259,121.4c0.2,0.6,0.5,1.3,0.8,1.8l6.1-4.7
			c0.6-0.4,0.8-0.9,0.5-1.6c-0.7-1.8-3.1-3.5-5.4-2.6C258.6,115.2,257.7,117.9,259,121.4z"/>
		<path class="st2" d="M140.1,219.1c0.2,0.6,0.1,1.5-0.3,2.3c-0.9,1.9-2.5,3.7-5.3,4.7c-3.4,1.2-6.7,0.2-7.6-2.2
			c-0.3-0.8-1.3-3.9-2.3-6.7l-2.4-6.4l-2.1,0.8c-0.9,0.3-1.7,0.1-1.9-0.7c-0.3-0.8,0.1-1.4,0.7-2.2c2.1-2.2,2.9-4,3.2-7.2
			c0.4-1.8,0.5-2.6,1.3-2.9c0.6-0.2,1.1,0,1.5,1.1l2.2,5.9l5.7-2c0.6-0.2,1.1,0,1.4,0.6c0.1,0.3,0.2,0.8,0.3,1.1
			c0.1,0.7-0.1,1.2-0.7,1.4l-5.4,2l3.6,9.9c1.1,3.1,2.4,3.5,3.8,3c1-0.3,1.5-1.1,2-2.1c0.2-0.3,0.4-0.8,0.9-1
			C139.4,218.2,139.9,218.6,140.1,219.1z"/>
		<path class="st2" d="M139.2,212.9c-2.3-6.3,1-12.8,8.2-15.4c7.1-2.6,13.1,0.4,15.3,6.3c2.4,6.4-1.2,12.9-8.2,15.4
			C147.3,221.8,141.3,218.8,139.2,212.9z M156.8,207.8c-1.5-4-5.7-8.3-9.4-6.9c-2.9,1.1-3.7,4-2.3,8c1.5,4,5.6,8.2,9.4,6.9
			C157.4,214.7,158.2,211.7,156.8,207.8z"/>
		<path class="st2" d="M185.6,185.4c0.2,0.4,0.3,0.9,0.3,1.2c0.2,0.7,0,1.1-0.7,1.4l-4,1.5l4.5,12.2c1.1,2.9,3.7,0.8,4.4,2.6
			c0.2,0.5,0,1.3-0.9,1.6c-1.1,0.4-2.4,0.7-4.7,1.5c-2.1,0.8-3.1,1.3-4,1.6c-1,0.4-1.6-0.1-1.8-0.6c-0.6-1.6,2.1-1.6,1-4.5
			l-4.5-12.2l-2.6,0.9c-0.6,0.2-1,0-1.4-0.6c-0.1-0.2-0.4-0.7-0.5-1.1c-0.2-0.5,0.1-1,0.7-1.2l2.4-0.9c-1-1.2-2.2-2.2-3-4.3
			c-1.3-3.5,0.7-7,5.3-8.6c3.6-1.3,7.4-0.8,8,0.8c0.3,0.9,0.2,2.1-0.3,4c-0.2,0.7-0.5,1.3-1.1,1.5c-0.6,0.2-1.1,0-1.5-0.7
			c-1.4-2.3-2.4-3.8-4-3.2c-1.4,0.5-1.7,1.9-1.2,3.5c0.9,2.3,2.5,3.2,3.8,4.8l4.7-1.7C184.9,184.7,185.4,184.9,185.6,185.4z
			 M185.6,178.1c-0.7-2,0.6-4.9,3.4-5.9c1.7-0.6,3.5-0.1,4.1,1.5c0.7,1.9-0.9,4.8-3.6,5.8C187.8,180.2,186.2,179.6,185.6,178.1z
			 M204.4,199.1c0.2,0.5,0,1.3-0.9,1.6c-1,0.3-2.1,0.6-4.1,1.3c-2,0.7-3,1.2-4,1.6c-1,0.3-1.6-0.1-1.8-0.6c-0.6-1.6,2.1-1.6,1-4.5
			l-3.1-8.4c-0.9-2.5-3.2-0.5-3.8-2.2c-0.3-0.9,0.5-1.8,2.9-4.1c2.2-2.2,2.6-2.4,3.1-2.6c1-0.4,1.5,0.3,1.9,1.5l5,13.6
			C201.8,199.2,203.8,197.5,204.4,199.1z"/>
		<path class="st2" d="M232,189.1c0.2,0.6-0.2,1.2-1.1,1.6c-1,0.4-1.9,0.6-4,1.3c-2.2,0.8-2.9,1.2-4,1.6c-1,0.4-1.7,0.1-1.9-0.6
			c-0.5-1.5,2-1.8,1.2-3.9c-0.1-0.4-0.5-1-0.9-1.7l-2.6-4.9c-1.4-2.6-3.1-4.2-5.3-3.4c-1.7,0.6-3.2,2.7-1.8,6.7l2.1,5.8
			c1.1,2.9,3.1,1.2,3.7,2.8c0.2,0.5,0,1.3-0.9,1.6c-1,0.3-2.1,0.6-4.1,1.3c-2,0.7-3,1.2-4,1.6c-1,0.4-1.6-0.1-1.8-0.6
			c-0.6-1.6,2.1-1.6,1-4.5l-3.1-8.4c-0.9-2.5-3.2-0.5-3.8-2.2c-0.3-0.9,0.5-1.8,2.9-4.1c2.2-2.2,2.6-2.4,3.1-2.6
			c1-0.3,1.5,0.3,1.9,1.5l0.7,1.9c0.5-2.6,2.1-5.2,5.2-6.3c4.1-1.5,7.3,1.3,9.4,5.4l3.7,7C229.5,189.3,231.3,187.4,232,189.1z"/>
		<path class="st2" d="M257.6,177.6c0.3,1-0.5,1.8-3.2,3.9c-2.2,1.8-2.7,2.1-3.1,2.3c-1.1,0.4-1.7-0.7-2-1.5l-0.7-1.8
			c-0.7,2.7-2.5,5.3-5.9,6.6c-5,1.8-10.5-0.5-12.9-6.9c-2.3-6.4,0.6-12.6,6.6-14.8c2.4-0.9,4.7-0.8,6.5-0.2l-1.8-4.8
			c-0.9-2.5-3.6-0.2-4.3-2.1c-0.3-0.9,0.5-1.8,3.1-4.2c2.3-2,2.9-2.4,3.3-2.5c1-0.4,1.6,0.4,1.9,1.5l8.1,22.1
			C254.5,177.7,257,176,257.6,177.6z M246.6,174.6l-0.5-1.4c-1.5-4-5.1-6.1-8-5c-2.8,1-3.8,4-2.4,7.9c1.8,4.8,5.6,6.8,8.3,5.8
			C246.5,180.9,247.8,178,246.6,174.6z"/>
		<path class="st2" d="M168.7,247.6c-2.3-6.3,1-12.8,8.2-15.4c7.1-2.6,13.1,0.4,15.3,6.3c2.4,6.4-1.2,12.9-8.2,15.4
			C176.9,256.5,170.9,253.5,168.7,247.6z M186.3,242.5c-1.5-4-5.7-8.3-9.4-6.9c-2.9,1.1-3.7,4-2.3,8c1.5,4,5.6,8.2,9.4,6.9
			C187,249.4,187.8,246.4,186.3,242.5z"/>
		<path class="st2" d="M222.5,236.2c0.4,1.1-0.4,1.8-3.5,3.8c-2.1,1.3-2.9,1.8-3.3,1.9c-0.9,0.3-1.6-0.3-1.9-1.2l-0.8-2.1
			c-0.5,2.6-2.1,5.2-5.5,6.4c-4.2,1.5-7.9-0.2-9.7-5.1l-2.3-6.2c-0.9-2.5-3.6-0.7-4.2-2.3c-0.4-1,0.4-1.8,3.2-3.9
			c2.3-1.9,2.9-2.2,3.2-2.3c1.1-0.4,1.6,0.5,2,1.5l3.5,9.4c1.2,3.2,2.9,4.4,5.4,3.5c2-0.7,3.7-3,2.3-6.9l-1.5-3.9
			c-0.9-2.5-4-0.4-4.6-2.2c-0.3-1,0.5-1.7,3.6-4.1c2.2-1.7,2.9-2.2,3.3-2.3c1.1-0.4,1.6,0.6,2,1.5l4.4,12.1
			C219,236.2,222,234.7,222.5,236.2z"/>
		<path class="st2" d="M239.3,228.6c0.2,0.6,0.1,1.5-0.3,2.3c-0.9,1.9-2.5,3.7-5.3,4.7c-3.4,1.2-6.7,0.2-7.6-2.2
			c-0.3-0.8-1.3-4-2.3-6.7l-2.4-6.4l-2.1,0.8c-0.9,0.3-1.7,0.1-1.9-0.7c-0.3-0.8,0.1-1.4,0.7-2.2c2.1-2.2,2.9-4,3.2-7.2
			c0.4-1.8,0.5-2.6,1.3-2.9c0.6-0.2,1.1,0,1.5,1.1l2.2,5.9l5.6-2c0.6-0.2,1.1,0,1.4,0.6c0.1,0.3,0.2,0.8,0.3,1.1
			c0.1,0.7-0.1,1.2-0.7,1.4l-5.4,2l3.6,9.9c1.1,3.1,2.4,3.5,3.8,3c1-0.3,1.5-1.1,2-2.1c0.2-0.3,0.4-0.8,0.9-1
			C238.6,227.7,239.1,228.1,239.3,228.6z"/>
		<path class="st2" d="M242,221.7c-2.3-4.5-6.7-12.2-7.9-15.5c-0.8-2.3-0.5-4.1,1.9-5c2.4-0.9,3.8,0.3,4.7,2.6c1.2,3.4,2.8,12,4,17
			c0,0.8-0.3,1.3-1,1.5C242.9,222.5,242.5,222.3,242,221.7z M242.2,229.2c0.6,1.7,2.3,2.4,4.2,1.7c2.2-0.8,3.2-2.8,2.6-4.5
			c-0.6-1.7-2.3-2.3-4.2-1.6C242.5,225.5,241.5,227.5,242.2,229.2z"/>
	</g>
</g>
<g>
	<circle class="st2" cx="398" cy="383" r="27"/>
	<circle class="st3" cx="398.4" cy="338.4" r="27"/>
	<circle class="st4" cx="398.9" cy="293.9" r="27"/>
	<circle class="st5" cx="399.3" cy="249.3" r="27"/>
	<circle class="st6" cx="399.8" cy="204.8" r="27"/>
	<circle class="st7" cx="400.2" cy="160.2" r="27"/>
	<circle class="st8" cx="400.7" cy="115.7" r="27"/>
	<circle class="st9" cx="401.1" cy="71.1" r="27"/>
	<circle class="st10" cx="401.6" cy="26.6" r="27"/>
	<circle class="st11" cx="402" cy="-18" r="27"/>
</g>
</svg>
